<svg width="400" height="400" viewBox="0 0 400 400" fill="none" xmlns="http://www.w3.org/2000/svg">
<path d="M105 179C93.0006 127 105.032 79 151.001 65M145 53C286 25.9999 313.999 145 286 202" stroke="black" stroke-opacity="0.9" stroke-width="16" stroke-linecap="round" stroke-linejoin="round"/>
<path d="M129 150C144.866 144.478 173.622 132.155 178 112" stroke="black" stroke-opacity="0.9" stroke-width="14" stroke-linecap="round" stroke-linejoin="round"/>
<path d="M178 118C190.88 134.181 225.474 147.734 254 150" stroke="black" stroke-opacity="0.9" stroke-width="14" stroke-linecap="round" stroke-linejoin="round"/>
<path d="M123.242 175.251C115.346 176.443 112.484 182.173 112.484 191.266C112.484 197.328 117.7 202.337 128.131 206.292C139.909 300.986 261.779 300.986 269.109 198.663C278.727 191.528 283.536 186.374 283.536 183.201C283.536 177.37 281.786 173.259 272.723 169.699" stroke="black" stroke-opacity="0.9" stroke-width="16" stroke-linecap="round" stroke-linejoin="round"/>
<path d="M143.5 168.467C154.5 162.5 224.382 161.5 230 161.5C307.5 155 205.333 258.5 205.333 168.467" stroke="black" stroke-opacity="0.9" stroke-width="16" stroke-linecap="round" stroke-linejoin="round"/>
<path d="M139.394 172.57C144.854 222.57 195.454 209.938 195.454 161.75" stroke="black" stroke-opacity="0.9" stroke-width="16" stroke-linecap="round" stroke-linejoin="round"/>
<path d="M202.061 237.32C193.853 238.261 185.976 237.11 178.516 235.467" stroke="black" stroke-opacity="0.9" stroke-width="16" stroke-linecap="round" stroke-linejoin="round"/>
<path d="M74 348.702C106.761 301.243 117.623 296.723 153.61 285.619C150.829 297.413 154.998 321 193.919 321C232.84 321 242.57 297.413 242.57 285.619C272.647 279 320.025 327.049 335 353" stroke="black" stroke-opacity="0.9" stroke-width="16" stroke-linecap="round" stroke-linejoin="round"/>
</svg>
