<svg width="400" height="400" viewBox="0 0 400 400" fill="none" xmlns="http://www.w3.org/2000/svg">
<path d="M130.167 213.277C122.799 214.179 120.128 218.515 120.128 225.396C120.128 229.983 124.995 233.773 134.729 236.767C145.72 308.424 259.444 308.424 266.284 230.994C275.259 225.594 279.746 221.694 279.746 219.293C279.746 214.88 278.113 211.77 269.656 209.075" stroke="black" stroke-opacity="0.9" stroke-width="16" stroke-linecap="round" stroke-linejoin="round"/>
<path d="M311 362C297.134 342.075 261.961 325.729 223.535 319.43C215.593 318.128 208.56 352.371 200.5 351.984C193.269 351.637 185.401 316.545 178.971 316.876C128.323 319.49 101.907 341.286 90 352.818" stroke="black" stroke-opacity="0.9" stroke-width="16" stroke-linecap="round" stroke-linejoin="round"/>
<path d="M156.563 182.769C169.549 176.567 190.942 166.15 194.494 158.156C195.279 156.383 234.539 188.971 260.183 188.971" stroke="black" stroke-opacity="0.9" stroke-width="16" stroke-linecap="round" stroke-linejoin="round"/>
<path d="M211.846 256.488C205.392 258.012 197.613 258.032 192.501 256.488" stroke="black" stroke-opacity="0.9" stroke-width="16" stroke-linecap="round" stroke-linejoin="round"/>
<path d="M187.915 216.39C188.106 212.711 188.846 209.239 189.209 205.757" stroke="black" stroke-opacity="0.9" stroke-width="16" stroke-linecap="round" stroke-linejoin="round"/>
<path d="M217.51 215.503C217.903 211.685 217.334 207.812 217.026 203.984" stroke="black" stroke-opacity="0.9" stroke-width="16" stroke-linecap="round" stroke-linejoin="round"/>
<path d="M97.5205 316.874C76.3171 239.811 106.904 165.033 127.318 143.676M284.972 153.125C306.931 205.212 312.043 281.467 298.814 320.59" stroke="black" stroke-opacity="0.9" stroke-width="16" stroke-linecap="round" stroke-linejoin="round"/>
<path opacity="0.503384" d="M123.847 132.94C130.365 131.734 137.786 50.081 139.555 50.081C141.68 50.081 142.416 60.9916 142.695 61.921C145.462 71.1847 152.135 81.81 161.544 85.5924C172.937 90.1702 193.021 57.8058 196.101 49.2943C196.183 49.0695 198.924 38.2972 200.029 39.0364C210.949 46.3505 206.866 95.8806 244.796 91.1169C267.56 88.2596 277.227 42.3087 281.71 44.5608C283.324 45.3692 280.196 65.3965 280.14 66.6544C279.107 89.4916 282.493 111.875 282.493 134.517C237.255 129.69 190.914 127.375 146.356 134.517" stroke="black" stroke-opacity="0.9" stroke-width="14" stroke-linecap="round" stroke-linejoin="round"/>
</svg>
