<svg width="400" height="400" viewBox="0 0 400 400" fill="none" xmlns="http://www.w3.org/2000/svg">
<path d="M302 73.9455C257.423 73.9455 235.59 31.7717 171.207 59.3632C137.179 73.9464 124.077 120.504 130.635 134" stroke="black" stroke-opacity="0.9" stroke-width="16" stroke-linecap="round" stroke-linejoin="round"/>
<path d="M295 101C272.813 169.87 175.246 77.1127 157 137" stroke="black" stroke-opacity="0.9" stroke-width="16" stroke-linecap="round" stroke-linejoin="round"/>
<path d="M137.558 165.499C113.368 179.209 133.423 185.15 141.331 192.433C120.892 278.184 312.952 358.1 282.775 151" stroke="black" stroke-opacity="0.9" stroke-width="16" stroke-linecap="round" stroke-linejoin="round"/>
<path d="M220 179C220 174.334 220 169.666 220 165" stroke="black" stroke-opacity="0.9" stroke-width="16" stroke-linecap="round" stroke-linejoin="round"/>
<path d="M253 175C253 170.665 253 166.335 253 162" stroke="black" stroke-opacity="0.9" stroke-width="16" stroke-linecap="round" stroke-linejoin="round"/>
<path fill-rule="evenodd" clip-rule="evenodd" d="M211.551 215.498C218.477 214.897 250.394 208.134 253.894 211.636C262.497 220.245 212.678 288.501 211.551 215.498Z" stroke="black" stroke-opacity="0.9" stroke-width="16" stroke-linecap="round" stroke-linejoin="round"/>
<path d="M99 351C128.079 290.221 293.878 289.115 300 351" stroke="black" stroke-opacity="0.9" stroke-width="16" stroke-linecap="round" stroke-linejoin="round"/>
</svg>
