<svg width="400" height="400" viewBox="0 0 400 400" fill="none" xmlns="http://www.w3.org/2000/svg">
<path d="M310.207 125.321C277.275 135.355 103.327 159.94 104.392 129.458C109.096 -5.24625 301.344 30.9996 277.275 163.634C256.031 280.703 104.392 277.974 104.392 159.119" stroke="black" stroke-opacity="0.9" stroke-width="16" stroke-linecap="round" stroke-linejoin="round"/>
<path d="M169.874 162.582C169.874 158.424 169.874 158.424 169.874 154.266" stroke="black" stroke-opacity="0.9" stroke-width="16" stroke-linecap="round" stroke-linejoin="round"/>
<path d="M204.138 161.503C204.137 159.5 204.137 155.5 204.177 154.266" stroke="black" stroke-opacity="0.9" stroke-width="16" stroke-linecap="round" stroke-linejoin="round"/>
<path d="M198.981 215.596C189.323 219.109 182.103 217.514 172.993 215.596" stroke="black" stroke-opacity="0.9" stroke-width="16" stroke-linecap="round" stroke-linejoin="round"/>
<path d="M77.3594 334.762C108.022 284.703 151.128 266.078 165.607 274.808C173.796 279.746 188.602 303.577 199.5 306.037C211.39 308.72 225.527 270.604 235.131 268.224C263.281 261.242 307.625 311.923 321.641 339.295" stroke="black" stroke-opacity="0.9" stroke-width="16" stroke-linecap="round" stroke-linejoin="round"/>
</svg>
