<svg width="400" height="400" viewBox="0 0 400 400" fill="none" xmlns="http://www.w3.org/2000/svg">
<path opacity="0.503384" d="M206.359 65.5592C198.946 104.358 170.139 144.529 137.216 166.418C130.495 170.888 108.185 189.537 99.2494 189.537C91.1189 189.537 92.2683 145.475 92.8553 140.507C98.5393 92.3113 131.608 51.3467 187.975 52.0079C222.549 52.4135 249.723 52.4143 282.645 73.6652C323.955 100.326 329.283 137.741 307.075 173.991C306.27 175.306 301.749 188.521 301.078 188.741C272.06 198.39 199.677 120.189 208.356 59.5812" stroke="black" stroke-opacity="0.9" stroke-width="14" stroke-linecap="round" stroke-linejoin="round"/>
<path d="M319 347C303.879 324.635 279.904 297.111 238 290.04C229.339 288.579 225.119 347.936 200 347C174.881 346.064 168 290.04 168 290.04C168 290.04 116 302 81 347" stroke="black" stroke-opacity="0.9" stroke-width="16" stroke-linecap="round" stroke-linejoin="round"/>
<path d="M101.32 189.555C101.478 201.32 101.32 211 111.282 226.911C121.243 242.823 136.105 252.477 149 257C161.895 261.523 189 273 215.5 264.5" stroke="black" stroke-opacity="0.9" stroke-width="16" stroke-linecap="round" stroke-linejoin="round"/>
<path d="M290.029 191.773C277.786 217.251 259.285 238.882 234.526 256.668" stroke="black" stroke-opacity="0.9" stroke-width="16" stroke-linecap="round" stroke-linejoin="round"/>
<path d="M166.297 204.299C165.703 274.736 230.365 212.183 218.684 200.218C214.266 195.698 174.119 201.244 165.703 200.627" stroke="black" stroke-opacity="0.9" stroke-width="16" stroke-linecap="round" stroke-linejoin="round"/>
<path d="M161.263 143.303C185.342 144.298 210.5 143.296 234.526 145.952" stroke="black" stroke-opacity="0.9" stroke-width="16" stroke-linecap="round" stroke-linejoin="round"/>
<path d="M141.282 164.662C156.797 198.819 188.865 180.128 191.234 148.51" stroke="black" stroke-opacity="0.9" stroke-width="16" stroke-linecap="round" stroke-linejoin="round"/>
<path d="M201.225 147.401C204.323 176.98 231.561 192.196 250.067 166.443" stroke="black" stroke-opacity="0.9" stroke-width="16" stroke-linecap="round" stroke-linejoin="round"/>
<path opacity="0.503384" d="M105.87 222.834C109.057 257.145 108.623 291.845 104.65 326" stroke="black" stroke-opacity="0.9" stroke-width="14" stroke-linecap="round" stroke-linejoin="round"/>
<path opacity="0.503384" d="M297.377 191.773C289.7 234.214 289.833 288.69 303.349 324.891" stroke="black" stroke-opacity="0.9" stroke-width="14" stroke-linecap="round" stroke-linejoin="round"/>
<path d="M90.4979 192.883C83.4053 203.567 93.057 203.096 99.1005 199.289" stroke="black" stroke-opacity="0.9" stroke-width="16" stroke-linecap="round" stroke-linejoin="round"/>
<path d="M90.7754 216.191C90.7754 215.812 90.7754 215.432 90.7754 215.056" stroke="black" stroke-opacity="0.9" stroke-width="6" stroke-linecap="round" stroke-linejoin="round"/>
<path d="M90.5968 232.101C90.4902 231.465 90.8465 230.839 90.9731 230.207" stroke="black" stroke-opacity="0.9" stroke-width="6" stroke-linecap="round" stroke-linejoin="round"/>
<path d="M90.5742 252.785C91.2702 251.723 90.824 250.569 90.9505 249.458" stroke="black" stroke-opacity="0.9" stroke-width="6" stroke-linecap="round" stroke-linejoin="round"/>
<path d="M298.909 190.553C313.384 187.106 307.27 193.774 300.835 192.781" stroke="black" stroke-opacity="0.9" stroke-width="16" stroke-linecap="round" stroke-linejoin="round"/>
<path d="M308.31 207.304C308.145 206.081 308.393 205.11 308.435 203.976" stroke="black" stroke-opacity="0.9" stroke-width="6" stroke-linecap="round" stroke-linejoin="round"/>
<path d="M307.227 228.381C307.263 227.275 307.227 226.162 307.227 225.053" stroke="black" stroke-opacity="0.9" stroke-width="6" stroke-linecap="round" stroke-linejoin="round"/>
<path d="M307.045 245.221C307.171 244.719 307.298 244.213 307.425 243.71" stroke="black" stroke-opacity="0.9" stroke-width="6" stroke-linecap="round" stroke-linejoin="round"/>
<path opacity="0.503384" d="M203.445 61.9839C161.583 101.091 125.741 122.437 111.311 184.008" stroke="black" stroke-opacity="0.9" stroke-width="14" stroke-linecap="round" stroke-linejoin="round"/>
<path opacity="0.503384" d="M211.215 63.093C239.604 103.606 314.121 127.845 294.573 190.664" stroke="black" stroke-opacity="0.9" stroke-width="14" stroke-linecap="round" stroke-linejoin="round"/>
<path opacity="0.503384" d="M137.666 252.785C138.569 275.348 137.147 298.165 134.636 320.453" stroke="black" stroke-opacity="0.9" stroke-width="14" stroke-linecap="round" stroke-linejoin="round"/>
<path opacity="0.503384" d="M261.168 230.599C262.008 254.798 259.176 306.636 265.608 321.563" stroke="black" stroke-opacity="0.9" stroke-width="14" stroke-linecap="round" stroke-linejoin="round"/>
</svg>
