<svg width="400" height="400" viewBox="0 0 400 400" fill="none" xmlns="http://www.w3.org/2000/svg">
<g clip-path="url(#clip0_1619_68438)">
<path d="M150.871 180.879C161.535 182.338 171.137 186.125 180.726 190.598" stroke="black" stroke-opacity="0.9" stroke-width="16" stroke-linecap="round" stroke-linejoin="round"/>
<path d="M242.511 179.49C234.173 180.362 226.748 184.248 219.602 187.821" stroke="black" stroke-opacity="0.9" stroke-width="16" stroke-linecap="round" stroke-linejoin="round"/>
<path d="M209.193 235.726C200.995 239.967 192.523 238.826 184.895 237.808" stroke="black" stroke-opacity="0.9" stroke-width="16" stroke-linecap="round" stroke-linejoin="round"/>
<path d="M205.028 99.6494C190.279 132.949 151.217 164.235 114.08 166.299" stroke="black" stroke-opacity="0.9" stroke-width="16" stroke-linecap="round" stroke-linejoin="round"/>
<path d="M202.25 106.591C202.383 147.366 248.928 178.053 287.644 166.992" stroke="black" stroke-opacity="0.9" stroke-width="16" stroke-linecap="round" stroke-linejoin="round"/>
<path d="M102.976 164.216C84.383 173.784 95.5926 183.357 109.918 185.043" stroke="black" stroke-opacity="0.9" stroke-width="16" stroke-linecap="round" stroke-linejoin="round"/>
<path d="M111.291 188.516C111.051 295.815 275.708 310.746 293.187 205.872" stroke="black" stroke-opacity="0.9" stroke-width="16" stroke-linecap="round" stroke-linejoin="round"/>
<path d="M105.051 154.498C115.402 60.7936 316.42 76.5497 298.054 168.382" stroke="black" stroke-opacity="0.9" stroke-width="16" stroke-linecap="round" stroke-linejoin="round"/>
<path d="M166.828 79.5167C154.65 17.8913 287.399 15.3675 222.37 93.4015" stroke="black" stroke-opacity="0.9" stroke-width="16" stroke-linecap="round" stroke-linejoin="round"/>
<path d="M197.389 215.591C195.473 213.903 193.853 216.604 192.529 216.98" stroke="black" stroke-opacity="0.9" stroke-width="16" stroke-linecap="round" stroke-linejoin="round"/>
<path d="M51 366.994C51 318.737 87.7411 270.479 148.962 270.479C147.152 284.249 154.106 312.287 196.407 314.277C238.707 316.268 258.094 285.908 262.5 270.479C292.463 276.266 351.859 303.669 349.744 366.994" stroke="black" stroke-opacity="0.9" stroke-width="16" stroke-linecap="round" stroke-linejoin="round"/>
</g>
<defs>
<clipPath id="clip0_1619_68438">
<rect width="400" height="400" fill="white"/>
</clipPath>
</defs>
</svg>
