<svg width="400" height="400" viewBox="0 0 400 400" fill="none" xmlns="http://www.w3.org/2000/svg">
<path d="M103.948 189.007C122.979 146.166 174.912 106.379 225.954 118.967C337.275 146.418 292.742 318.738 178.953 308.374C119.949 303 90.0224 208.667 105.95 192.952C126.975 172.215 181.402 166.48 200.177 166.48C219.28 166.48 267.7 175.748 282.957 187.033C289.497 191.872 246.485 201.828 240.954 202.82C198.209 210.485 161.609 212.189 119.948 199.86" stroke="black" stroke-opacity="0.9" stroke-width="16" stroke-linecap="round" stroke-linejoin="round"/>
<path d="M181.472 190.628C180.808 185.073 181.738 179.593 182.57 174.201" stroke="black" stroke-opacity="0.9" stroke-width="16" stroke-linecap="round" stroke-linejoin="round"/>
<path d="M210.059 189.891C208.932 183.937 209.453 178.421 208.932 174.729" stroke="black" stroke-opacity="0.9" stroke-width="16" stroke-linecap="round" stroke-linejoin="round"/>
<path opacity="0.503384" d="M165.816 55.4552C188.058 88.8544 185.092 123.901 191.955 118.596C202.113 110.743 199.839 94.0062 202.008 66.2158C202.993 53.6086 202.993 43.87 202.008 37C202.638 64.5934 202.974 78.8407 203.016 79.742C203.049 80.4493 203.205 91.9041 203.485 114.106C207.245 114.106 200 114.106 217.399 88.0728C228.597 71.3186 229.553 69.1864 234.183 57.399" stroke="black" stroke-opacity="0.9" stroke-width="14" stroke-linecap="round" stroke-linejoin="round"/>
<path d="M150 300C65 300 69.7204 333.085 58 363" stroke="black" stroke-opacity="0.9" stroke-width="16" stroke-linecap="round" stroke-linejoin="round"/>
<path d="M260.771 292.24C323.999 292.24 331.999 338 338 363" stroke="black" stroke-opacity="0.9" stroke-width="16" stroke-linecap="round" stroke-linejoin="round"/>
</svg>
