<svg width="400" height="400" viewBox="0 0 400 400" fill="none" xmlns="http://www.w3.org/2000/svg">
<path d="M154.43 82.5312C173.459 117.556 205.217 122.311 243.126 118.117" stroke="black" stroke-opacity="0.9" stroke-width="16" stroke-linecap="round" stroke-linejoin="round"/>
<path d="M150.09 86.5879C140.296 98.5304 134.136 110.444 129.975 126.872" stroke="black" stroke-opacity="0.9" stroke-width="16" stroke-linecap="round" stroke-linejoin="round"/>
<path d="M130.428 131.586C117.524 139.947 135.196 152.018 135.196 152.739C135.196 229.349 250.086 260.198 250.086 161.051" stroke="black" stroke-opacity="0.9" stroke-width="16" stroke-linecap="round" stroke-linejoin="round"/>
<path d="M118.367 215.001C87.2977 146.373 97.9899 60.6461 164.799 33.3594" stroke="black" stroke-opacity="0.9" stroke-width="16" stroke-linecap="round" stroke-linejoin="round"/>
<path d="M187.836 33C307.055 33.0003 275.092 138.363 282.29 203.481" stroke="black" stroke-opacity="0.9" stroke-width="16" stroke-linecap="round" stroke-linejoin="round"/>
<path d="M186.273 144.558C186.273 141.486 186.273 138.409 186.273 135.336" stroke="black" stroke-opacity="0.9" stroke-width="16" stroke-linecap="round" stroke-linejoin="round"/>
<path d="M212.424 144.452C212.424 139.561 213.503 138.736 212.424 135.019" stroke="black" stroke-opacity="0.9" stroke-width="16" stroke-linecap="round" stroke-linejoin="round"/>
<path d="M144.153 218.021C130.491 255.064 179.516 277.407 185.349 311.852C185.488 312.657 186.432 356.683 188.884 356.683C197.622 356.683 188.825 310.119 192.414 304.557C218.528 264.074 247.734 267.575 247.734 213.848" stroke="black" stroke-opacity="0.9" stroke-width="16" stroke-linecap="round" stroke-linejoin="round"/>
<path d="M45 364.747C60.1863 306.064 60.1863 250.394 141.759 217.304" stroke="black" stroke-opacity="0.9" stroke-width="16" stroke-linecap="round" stroke-linejoin="round"/>
<path d="M250.039 217.304C306.493 219.949 354.862 302.323 354.862 356.683" stroke="black" stroke-opacity="0.9" stroke-width="16" stroke-linecap="round" stroke-linejoin="round"/>
<path d="M247.455 214.385C252.065 225.679 270.413 261.433 272.454 273.673" stroke="black" stroke-opacity="0.9" stroke-width="16" stroke-linecap="round" stroke-linejoin="round"/>
<path d="M264.978 274.103C308.842 245.731 308.11 334.174 263.765 302.154C252.366 293.926 265.751 280.95 271.051 272.934" stroke="black" stroke-opacity="0.9" stroke-width="16" stroke-linecap="round" stroke-linejoin="round"/>
<path d="M144.573 219.081C125.03 233.198 104.686 262.672 102.723 285.53" stroke="black" stroke-opacity="0.9" stroke-width="16" stroke-linecap="round" stroke-linejoin="round"/>
<path d="M69.0328 364.747C41.0842 350.369 78.0748 270.547 109.176 286.469C133.815 299.08 128.248 362.011 101.533 364.747" stroke="black" stroke-opacity="0.9" stroke-width="16" stroke-linecap="round" stroke-linejoin="round"/>
<path d="M285.611 332.155C275.828 331.226 266.34 333.888 256.664 335.278" stroke="black" stroke-opacity="0.9" stroke-width="16" stroke-linecap="round" stroke-linejoin="round"/>
</svg>
