<svg width="400" height="400" viewBox="0 0 400 400" fill="none" xmlns="http://www.w3.org/2000/svg">
<path d="M191.311 107.648C207.747 133.069 242.015 146.732 272.649 158.352" stroke="black" stroke-opacity="0.9" stroke-width="16" stroke-linecap="round" stroke-linejoin="round"/>
<path d="M179.689 73.845C263.14 52.7184 312.17 126.662 312.17 180.535C312.17 234.409 299.056 270.324 312.17 287.754" stroke="black" stroke-opacity="0.9" stroke-width="16" stroke-linecap="round" stroke-linejoin="round"/>
<path d="M159.619 85.4651C76.1688 108.705 114.197 246.028 99.4082 281.944" stroke="black" stroke-opacity="0.9" stroke-width="16" stroke-linecap="round" stroke-linejoin="round"/>
<path d="M191.311 107.648C178.635 127.718 159.81 143.028 137.438 158.352" stroke="black" stroke-opacity="0.9" stroke-width="16" stroke-linecap="round" stroke-linejoin="round"/>
<path d="M130.042 176.31C124.335 176.31 124.645 189.734 129.551 191.099" stroke="black" stroke-opacity="0.9" stroke-width="16" stroke-linecap="round" stroke-linejoin="round"/>
<path d="M287.42 177.366C293.507 182.706 290.077 189.125 284.268 189.125" stroke="black" stroke-opacity="0.9" stroke-width="16" stroke-linecap="round" stroke-linejoin="round"/>
<path d="M160.239 185.492C176.529 187.6 204.608 191.448 214.21 190.245C223.813 189.042 256.349 180.738 263.841 184.827C271.137 212.956 260.046 264.189 214.21 264.189C198.119 264.189 153.884 258.907 160.239 194.166" stroke="black" stroke-opacity="0.9" stroke-width="16" stroke-linecap="round" stroke-linejoin="round"/>
<path d="M227.029 176.755C227.029 174.141 227.029 171.529 227.029 168.916" stroke="black" stroke-opacity="0.9" stroke-width="16" stroke-linecap="round" stroke-linejoin="round"/>
<path d="M192.365 178.423C192.402 175.212 193.1 172.096 193.422 168.916" stroke="black" stroke-opacity="0.9" stroke-width="16" stroke-linecap="round" stroke-linejoin="round"/>
<path d="M73 356.025C83.055 331.743 117.353 281.27 168.681 281.27C190.554 281.932 195.74 324.107 215.18 324.107C234.62 324.107 235.351 279.941 254.215 281.27C307.749 285.043 339.197 339.514 342.366 360.394" stroke="black" stroke-opacity="0.9" stroke-width="16" stroke-linecap="round" stroke-linejoin="round"/>
</svg>
