<svg width="400" height="400" viewBox="0 0 400 400" fill="none" xmlns="http://www.w3.org/2000/svg">
<path d="M124.729 237.878C126.017 230.899 130.229 225.191 133.556 219.085C137.419 211.994 143.257 207.923 150.531 204.654C173.331 194.411 188.304 216.49 215.378 212.373C219.758 211.707 233.108 209.802 234.73 204.99" stroke="black" stroke-opacity="0.9" stroke-width="16" stroke-linecap="round" stroke-linejoin="round"/>
<path d="M235.505 185.463C245.846 183.371 257.998 188.393 263.355 197.234C266.298 202.091 270.254 207.655 271.166 213.378C276.413 246.286 245.283 264.163 216.146 264.163C210.919 264.163 205.292 264.81 200.184 263.491C189.777 260.802 176.31 254.312 168.598 246.674C161.711 239.854 155.748 230.194 144.824 230.194" stroke="black" stroke-opacity="0.9" stroke-width="16" stroke-linecap="round" stroke-linejoin="round"/>
<path d="M156.893 246.34C163.402 276.299 149.267 293.166 144.361 323.288C143.55 328.264 143.077 357.923 146.339 346.237" stroke="black" stroke-opacity="0.9" stroke-width="16" stroke-linecap="round" stroke-linejoin="round"/>
<path d="M192.149 263.264C195.579 274.719 197.656 287.949 196.159 299.908C194.11 316.288 182.892 333.47 188.867 350" stroke="black" stroke-opacity="0.9" stroke-width="16" stroke-linecap="round" stroke-linejoin="round"/>
<path d="M178.763 341.538C178.707 344.228 178.317 346.48 179.73 348.942" stroke="black" stroke-opacity="0.9" stroke-width="12" stroke-linecap="round" stroke-linejoin="round"/>
<path d="M169.416 341.538C169.416 343.653 169.416 345.769 169.416 347.885" stroke="black" stroke-opacity="0.9" stroke-width="12" stroke-linecap="round" stroke-linejoin="round"/>
<path d="M157.274 343.654C157.62 345.429 157.022 347.194 156.6 348.942" stroke="black" stroke-opacity="0.9" stroke-width="12" stroke-linecap="round" stroke-linejoin="round"/>
<path d="M125.02 234.705C115.389 238.302 107.179 246.154 101.327 253.243C88.8642 268.341 88 312.096 88 333.076" stroke="black" stroke-opacity="0.9" stroke-width="16" stroke-linecap="round" stroke-linejoin="round"/>
<path d="M271.75 235.763C294.345 246.224 307.328 282.706 310.399 301.061C312.234 312.027 313.001 321.727 313.001 334.134" stroke="black" stroke-opacity="0.9" stroke-width="16" stroke-linecap="round" stroke-linejoin="round"/>
<path d="M136.794 134.295C130.506 135.109 128.227 139.022 128.227 145.232C128.227 149.372 132.38 152.793 140.687 155.494C150.066 220.163 247.117 220.163 252.954 150.284C260.613 145.411 264.442 141.891 264.442 139.724C264.442 135.742 263.049 132.935 255.831 130.503" stroke="black" stroke-opacity="0.9" stroke-width="16" stroke-linecap="round" stroke-linejoin="round"/>
<path d="M154.344 111.866C162.805 97.4225 165.917 82.9788 165.917 82.9788C165.917 82.9788 186.609 104.203 244.374 111.866" stroke="black" stroke-opacity="0.9" stroke-width="16" stroke-linecap="round" stroke-linejoin="round"/>
<path d="M207.034 169.713C201.526 171.05 196.123 174.463 191.893 169.713" stroke="black" stroke-opacity="0.9" stroke-width="16" stroke-linecap="round" stroke-linejoin="round"/>
<path d="M185.221 137.944C185.384 134.716 186.015 131.669 186.325 128.614" stroke="black" stroke-opacity="0.9" stroke-width="16" stroke-linecap="round" stroke-linejoin="round"/>
<path d="M210.477 137.166C210.812 133.816 210.327 130.418 210.064 127.059" stroke="black" stroke-opacity="0.9" stroke-width="16" stroke-linecap="round" stroke-linejoin="round"/>
<path d="M114.799 229.37C97.6905 161.754 122.613 70.4619 149.584 70.4619" stroke="black" stroke-opacity="0.9" stroke-width="16" stroke-linecap="round" stroke-linejoin="round"/>
<path d="M168.094 58.6085C293.758 4.49823 292.004 195.043 280.715 229.37" stroke="black" stroke-opacity="0.9" stroke-width="16" stroke-linecap="round" stroke-linejoin="round"/>
</svg>
