<svg width="400" height="400" viewBox="0 0 400 400" fill="none" xmlns="http://www.w3.org/2000/svg">
<path d="M199.256 119.406C193.255 141.538 148.55 141.881 140.006 156.118C135.062 164.357 136.088 183.582 136.088 192.826C136.088 308.194 274.667 296.977 274.667 171.779" stroke="black" stroke-opacity="0.9" stroke-width="16" stroke-linecap="round" stroke-linejoin="round"/>
<path d="M204 117C224.888 128.07 255.483 132.993 266 153" stroke="black" stroke-opacity="0.9" stroke-width="16" stroke-linecap="round" stroke-linejoin="round"/>
<path d="M153.333 301.428C139.691 316.121 93.3654 252.1 129.503 255.714" stroke="black" stroke-opacity="0.9" stroke-width="16" stroke-linecap="round" stroke-linejoin="round"/>
<path d="M138.732 262.605C31.4281 99.988 234.602 -16.4908 297.893 117.498C321.492 179.945 277.038 333.042 158.51 280.037" stroke="black" stroke-opacity="0.9" stroke-width="16" stroke-linecap="round" stroke-linejoin="round"/>
<path d="M278.999 264C295.499 276 267.078 293.556 257.999 299C222.571 320.229 191.963 351.51 153.333 296.39" stroke="black" stroke-opacity="0.9" stroke-width="16" stroke-linecap="round" stroke-linejoin="round"/>
<path d="M113.333 288.939C94.9676 298.731 74.6505 326.834 76.0704 341" stroke="black" stroke-opacity="0.9" stroke-width="16" stroke-linecap="round" stroke-linejoin="round"/>
<path d="M294.667 283.599C311.403 295.345 317.67 317.084 324 334.326" stroke="black" stroke-opacity="0.9" stroke-width="16" stroke-linecap="round" stroke-linejoin="round"/>
<path d="M187 199C187.477 194.922 188.344 190.993 187.855 187" stroke="black" stroke-opacity="0.9" stroke-width="16" stroke-linecap="round" stroke-linejoin="round"/>
<path d="M224 198C225.463 193.939 225.02 189.962 224.545 186" stroke="black" stroke-opacity="0.9" stroke-width="16" stroke-linecap="round" stroke-linejoin="round"/>
<path d="M213 240.388C203.043 246.844 195.581 243.774 189 238" stroke="black" stroke-opacity="0.9" stroke-width="16" stroke-linecap="round" stroke-linejoin="round"/>
</svg>
