<svg width="400" height="400" viewBox="0 0 400 400" fill="none" xmlns="http://www.w3.org/2000/svg">
<path d="M159.431 153.701C168.135 146.081 187.753 144.867 192.974 158.405C214.644 214.611 121.994 191.08 163.51 150.882" stroke="black" stroke-opacity="0.9" stroke-width="16" stroke-linecap="round" stroke-linejoin="round"/>
<path d="M268 154C274.307 151.109 281.1 149.028 288 148" stroke="black" stroke-opacity="0.9" stroke-width="16" stroke-linecap="round" stroke-linejoin="round"/>
<path d="M152.669 156.549C141.939 156.045 131.859 154.777 121.152 154.125" stroke="black" stroke-opacity="0.9" stroke-width="16" stroke-linecap="round" stroke-linejoin="round"/>
<path d="M188.553 260.795C187.196 264.608 189.358 268.261 189.955 271.705" stroke="black" stroke-opacity="0.9" stroke-width="16" stroke-linecap="round" stroke-linejoin="round"/>
<path d="M206.786 249.886C206.665 264.433 206.436 278.971 206.436 293.524" stroke="black" stroke-opacity="0.9" stroke-width="16" stroke-linecap="round" stroke-linejoin="round"/>
<path d="M224.589 260.795C228.114 264.688 223.449 269.342 222.484 271.705" stroke="black" stroke-opacity="0.9" stroke-width="16" stroke-linecap="round" stroke-linejoin="round"/>
<path d="M256 81C258.5 72 264 70 268 67" stroke="black" stroke-opacity="0.9" stroke-width="16" stroke-linecap="round" stroke-linejoin="round"/>
<path d="M269 89.273C270.456 86.0151 281.266 83.9109 283.546 82" stroke="black" stroke-opacity="0.9" stroke-width="16" stroke-linecap="round" stroke-linejoin="round"/>
<path d="M131.985 85.6973C128 81.5 124.496 81 122 79" stroke="black" stroke-opacity="0.9" stroke-width="16" stroke-linecap="round" stroke-linejoin="round"/>
<path fill-rule="evenodd" clip-rule="evenodd" d="M141.76 77.7581C141.76 76.2092 138.123 68.3976 138.123 66.8486L141.76 77.7581Z" stroke="black" stroke-opacity="0.9" stroke-width="16" stroke-linecap="round" stroke-linejoin="round"/>
<path d="M233.826 148.341C272.787 143.805 264.323 196.486 227.381 191.349C210.397 188.989 213.783 161.407 225.771 156.405" stroke="black" stroke-opacity="0.9" stroke-width="16" stroke-linecap="round" stroke-linejoin="round"/>
<path d="M123.761 153.881C115.129 155.143 112 161.213 112 170.844C112 177.264 115.096 181.311 126.5 185.5C146 291.5 275.215 287.055 283.228 178.678C293.743 171.121 297.5 162.361 297.5 159C297.5 152.824 297.087 151.771 287.178 148" stroke="black" stroke-opacity="0.9" stroke-width="16" stroke-linecap="round" stroke-linejoin="round"/>
<path d="M225 220.525C212.458 223.428 199.002 224.391 190 220" stroke="black" stroke-opacity="0.9" stroke-width="16" stroke-linecap="round" stroke-linejoin="round"/>
<path d="M90 338C90 301.5 117.789 265 164.094 265C162.725 275.415 167.986 296.621 199.98 298.127C231.974 299.633 246.638 276.67 249.971 265C272.633 269.376 317.558 290.103 315.958 338" stroke="black" stroke-opacity="0.9" stroke-width="16" stroke-linecap="round" stroke-linejoin="round"/>
<path d="M122 134C119.333 112.667 142.2 55.8 203 59C279 63 280 102 284 134" stroke="black" stroke-opacity="0.9" stroke-width="16" stroke-linecap="round" stroke-linejoin="round"/>
</svg>
