<svg width="400" height="400" viewBox="0 0 400 400" fill="none" xmlns="http://www.w3.org/2000/svg">
<path fill-rule="evenodd" clip-rule="evenodd" d="M239.2 163.089C241.397 160.238 242.681 156.901 243.248 153.405C243.53 151.689 243.492 149.923 243.341 148.198C243.208 146.655 242.748 145.157 242.353 143.664C242.226 143.175 242.073 142.725 241.861 142.313C242.142 141.961 242.371 141.571 242.538 141.153C242.965 140.088 243.051 138.581 242.449 137.556C241.755 136.367 241.055 135.194 240.059 134.223C239.03 133.22 237.956 132.243 236.808 131.366C234.907 129.923 232.815 128.804 230.62 127.84C229.115 127.181 227.485 126.803 225.885 126.438C224.281 126.073 222.583 126.164 220.955 126.245C219.095 126.339 217.264 126.952 215.5 127.491C209.636 129.282 205.455 134.328 203.132 139.696C202.206 141.836 201.747 144.193 201.372 146.476C201.195 147.558 201.012 148.657 200.937 149.751C200.796 151.726 200.696 153.681 200.779 155.666C200.849 157.26 201.023 158.807 201.37 160.367C201.771 162.183 202.441 163.966 203.241 165.645C203.923 167.083 204.822 168.434 205.743 169.73C206.603 170.942 207.752 171.966 208.906 172.9C210.216 173.959 212.05 174.525 213.7 174.817C215.634 175.16 217.557 175.111 219.512 174.883C221.44 174.662 223.348 174.013 225.193 173.445C226.427 173.062 227.642 172.64 228.835 172.139C229.344 171.924 229.842 171.683 230.323 171.421C233.919 169.462 236.754 166.266 239.2 163.089Z" stroke="black" stroke-opacity="0.9" stroke-width="16" stroke-linecap="round" stroke-linejoin="round"/>
<path fill-rule="evenodd" clip-rule="evenodd" d="M159.234 129.683C158.117 130.432 157.253 131.331 156.337 132.307C155.249 133.47 154.553 135.029 153.892 136.445C153.311 137.685 152.936 139.008 152.626 140.346C150.404 140.117 148.189 141.4 147.387 143.523C146.106 146.941 146.146 150.496 146.781 154.037C147.072 155.653 147.61 157.244 148.106 158.808C148.532 160.153 148.988 161.48 149.556 162.777C149.98 163.75 150.59 164.673 151.186 165.552C151.764 166.409 152.389 167.192 153.117 167.937C153.957 168.797 154.912 169.605 155.881 170.333C156.685 170.933 157.633 171.361 158.523 171.818C158.125 171.615 157.73 171.411 157.332 171.207C158.498 171.805 159.622 172.356 160.857 172.787C162.224 173.266 163.656 173.539 165.07 173.838C167.688 174.39 170.481 174.228 173.079 173.673C175.815 173.09 178.346 171.952 180.668 170.449C185.292 167.456 188.749 162.766 190.278 157.56C191.054 154.926 191.237 152.309 190.935 149.587C190.806 148.395 190.637 147.215 190.4 146.038C189.841 143.281 189.001 140.517 187.812 137.959C187.295 136.846 186.631 135.792 185.945 134.773C185.547 134.18 185.12 133.625 184.657 133.073C184.071 132.385 183.335 131.815 182.664 131.211C181.415 130.087 179.76 129.343 178.241 128.654C177.535 128.334 176.781 128.113 176.049 127.863C173.891 127.128 171.602 126.744 169.323 126.744C165.76 126.743 162.221 127.682 159.234 129.683Z" stroke="black" stroke-opacity="0.9" stroke-width="16" stroke-linecap="round" stroke-linejoin="round"/>
<path fill-rule="evenodd" clip-rule="evenodd" d="M238.796 265.878C249.049 241.4 242.571 218.86 231.563 208.128C220.554 197.397 212.099 198.167 197.429 198.167C182.759 198.167 173.781 198.933 164.655 203.548C155.53 208.163 148.302 213.82 147.35 231.372C146.398 248.923 147.35 259.833 153.256 270.31C159.162 280.786 175.439 298.256 197.429 298.256C219.419 298.256 228.543 290.356 238.796 265.878Z" stroke="black" stroke-opacity="0.9" stroke-width="16" stroke-linecap="round" stroke-linejoin="round"/>
<path d="M142.592 140.791C142.184 140.775 141.779 140.769 141.374 140.769C139.113 140.769 136.883 140.984 134.629 141.209C133.077 141.362 131.526 141.478 129.97 141.613C127.067 141.872 124.202 142.351 121.31 142.677C120.09 142.814 118.872 142.932 117.667 143.153C116.181 143.426 114.724 143.918 113.304 144.387C112.154 144.769 111.018 145.197 109.882 145.612C108.664 146.057 107.448 146.635 106.433 147.41" stroke="black" stroke-opacity="0.9" stroke-width="16" stroke-linecap="round" stroke-linejoin="round"/>
<path d="M289.625 139.891C288.966 139.036 288.306 138.337 287.31 137.856C286.436 137.438 285.492 137.169 284.525 137.069L284.468 137.063C283.303 136.949 282.116 136.939 280.946 136.886C279.314 136.816 277.686 136.873 276.056 136.955C274.22 137.048 272.389 137.264 270.554 137.385C268.718 137.508 266.877 137.516 265.039 137.566C263.477 137.612 261.913 137.676 260.35 137.67C258.536 137.662 256.726 137.642 254.912 137.73C253.091 137.816 251.274 137.977 249.451 138.046C247.754 138.111 246.076 138.284 244.389 138.448" stroke="black" stroke-opacity="0.9" stroke-width="16" stroke-linecap="round" stroke-linejoin="round"/>
<path d="M190.217 143.696C189.364 145.466 200.517 144.227 199.636 142.667" stroke="black" stroke-opacity="0.9" stroke-width="16" stroke-linecap="round" stroke-linejoin="round"/>
<path d="M106.021 119.477C106.021 102.482 125.733 30 197.837 30C259.652 30 284.299 94.9836 284.299 113.124M244.49 247C261.407 238.941 283.337 216.453 283.337 166.257C292.893 156.96 306.271 137.994 283.337 136.507M144.516 247C123.887 230.573 111.396 203.456 111.396 167.187C104.23 161.918 97.4212 151.568 106.021 148.593" stroke="black" stroke-opacity="0.9" stroke-width="16" stroke-linecap="round" stroke-linejoin="round"/>
<path d="M185.412 228.051H208.249" stroke="black" stroke-opacity="0.9" stroke-width="16" stroke-linecap="round" stroke-linejoin="round"/>
<path d="M65 327C72 294 118 271 144 264" stroke="black" stroke-opacity="0.9" stroke-width="16" stroke-linecap="round" stroke-linejoin="round"/>
<path d="M245 264C285 272 309 287 331 333" stroke="black" stroke-opacity="0.9" stroke-width="16" stroke-linecap="round" stroke-linejoin="round"/>
</svg>
