<svg width="400" height="400" viewBox="0 0 400 400" fill="none" xmlns="http://www.w3.org/2000/svg">
<path d="M63 349C69.3441 332.402 112.606 253.105 158.059 253.105C167.183 253.105 162.678 299 203.46 299C227.824 299 239.099 249 248.99 249C278.646 249 318.663 299 337 349" stroke="black" stroke-opacity="0.9" stroke-width="16" stroke-linecap="round" stroke-linejoin="round"/>
<path d="M123.707 142.485C152.484 30.9487 175.195 112.177 227.583 94.7024C244.794 88.9614 252.682 69.7223 265.281 85.4816C268.694 89.7505 282.929 127.657 283.71 127.398C297.276 122.872 274.646 80.6774 271.143 75.4215C251.564 46.0304 102.389 13.3714 117.006 145" stroke="black" stroke-opacity="0.9" stroke-width="16" stroke-linecap="round" stroke-linejoin="round"/>
<path d="M114.075 152.736C105.213 153.753 102 158.64 102 166.396C102 171.567 107.854 175.839 119.563 179.213C132.783 259.982 269.579 259.982 277.807 172.706C288.602 166.62 294 162.224 294 159.517C294 154.543 292.036 151.037 281.862 148" stroke="black" stroke-opacity="0.9" stroke-width="16" stroke-linecap="round" stroke-linejoin="round"/>
<path d="M215 205C204.223 208.38 196.166 206.846 186 205" stroke="black" stroke-opacity="0.9" stroke-width="16" stroke-linecap="round" stroke-linejoin="round"/>
<path d="M212 164C212 159.338 212 160.58 212 156" stroke="black" stroke-opacity="0.9" stroke-width="16" stroke-linecap="round" stroke-linejoin="round"/>
<path d="M186 164C186 161.333 186 158.667 186 156" stroke="black" stroke-opacity="0.9" stroke-width="16" stroke-linecap="round" stroke-linejoin="round"/>
</svg>
