<svg width="400" height="400" viewBox="0 0 400 400" fill="none" xmlns="http://www.w3.org/2000/svg">
<path d="M149.983 252.787C122 239 111.741 209.809 109.001 187.309C99.0008 182.873 84.0008 171.8 104.001 163M235.844 258C276.873 234.428 276.408 209.205 278.878 187.309C289.627 183.873 296.899 168.6 284.001 163" stroke="black" stroke-opacity="0.9" stroke-width="16" stroke-linecap="round" stroke-linejoin="round"/>
<path d="M154.501 253.877C143.999 190 239 187 233.279 257.885C238.321 333.844 172.458 361.643 160 274" stroke="black" stroke-opacity="0.9" stroke-width="16" stroke-linecap="round" stroke-linejoin="round"/>
<path d="M223 73C223.619 69.8182 231 61 240 67" stroke="black" stroke-opacity="0.9" stroke-width="16" stroke-linecap="round" stroke-linejoin="round"/>
<path d="M188 67C188.667 63.1818 192.4 55.4364 202 55" stroke="black" stroke-opacity="0.9" stroke-width="16" stroke-linecap="round" stroke-linejoin="round"/>
<path d="M150 73C150.333 70.1364 152.5 66.0455 157 64" stroke="black" stroke-opacity="0.9" stroke-width="16" stroke-linecap="round" stroke-linejoin="round"/>
<path d="M201.5 233.072C195 233.072 191.936 233.072 187 233.072" stroke="black" stroke-opacity="0.9" stroke-width="16" stroke-linecap="round" stroke-linejoin="round"/>
<path d="M177 175.015C177 171.343 177 167.672 177 164" stroke="black" stroke-opacity="0.9" stroke-width="16" stroke-linecap="round" stroke-linejoin="round"/>
<path d="M209.141 175.015C209.141 171.5 209.141 167.5 209.141 164" stroke="black" stroke-opacity="0.9" stroke-width="16" stroke-linecap="round" stroke-linejoin="round"/>
<path d="M163.223 161.889C184.5 158 201 156 224 161.889" stroke="black" stroke-opacity="0.9" stroke-width="12" stroke-linecap="round" stroke-linejoin="round"/>
<path d="M71 340C81.0172 307.261 102.017 284.928 134 273" stroke="black" stroke-opacity="0.9" stroke-width="16" stroke-linecap="round" stroke-linejoin="round"/>
<path d="M254 273C299.475 284.374 307.5 293.394 329 345" stroke="black" stroke-opacity="0.9" stroke-width="16" stroke-linecap="round" stroke-linejoin="round"/>
<path d="M122 83C96.5297 101.72 102.643 120.44 102.643 135" stroke="black" stroke-opacity="0.9" stroke-width="16" stroke-linecap="round" stroke-linejoin="round"/>
<path d="M272 94C279.333 106.891 284.999 127.516 285 149" stroke="black" stroke-opacity="0.9" stroke-width="16" stroke-linecap="round" stroke-linejoin="round"/>
</svg>
