<svg width="400" height="400" viewBox="0 0 400 400" fill="none" xmlns="http://www.w3.org/2000/svg">
<path d="M121.358 169.114C113.323 170.156 110.41 175.162 110.41 183.106C110.41 188.402 115.718 192.778 126.332 196.234C138.318 278.962 262.334 278.962 269.793 189.569C279.58 183.335 284.474 178.832 284.474 176.06C284.474 170.966 282.693 167.375 273.47 164.264" stroke="black" stroke-opacity="0.9" stroke-width="16" stroke-linecap="round" stroke-linejoin="round"/>
<path d="M143.783 140.423C154.596 121.945 158.572 103.468 158.572 103.468C158.572 103.468 185.014 130.619 258.829 140.423" stroke="black" stroke-opacity="0.9" stroke-width="16" stroke-linecap="round" stroke-linejoin="round"/>
<path d="M211.113 214.424C204.076 216.134 197.172 220.5 191.766 214.424" stroke="black" stroke-opacity="0.9" stroke-width="16" stroke-linecap="round" stroke-linejoin="round"/>
<path d="M183.24 173.782C183.449 169.653 184.256 165.756 184.652 161.848" stroke="black" stroke-opacity="0.9" stroke-width="16" stroke-linecap="round" stroke-linejoin="round"/>
<path d="M215.511 172.788C215.94 168.502 215.32 164.155 214.984 159.859" stroke="black" stroke-opacity="0.9" stroke-width="16" stroke-linecap="round" stroke-linejoin="round"/>
<path d="M93.2515 290.741C71.3894 204.242 103.237 87.4553 137.702 87.4553" stroke="black" stroke-opacity="0.9" stroke-width="16" stroke-linecap="round" stroke-linejoin="round"/>
<path d="M161 72.2918C321.58 3.07047 319.339 246.828 304.913 290.741" stroke="black" stroke-opacity="0.9" stroke-width="16" stroke-linecap="round" stroke-linejoin="round"/>
<path d="M321 334C305.879 311.635 267.523 293.289 225.619 286.218C216.959 284.757 209.29 323.192 200.5 322.758C192.615 322.369 184.034 282.979 177.023 283.352C121.791 286.285 92.9843 310.749 80 323.694" stroke="black" stroke-opacity="0.9" stroke-width="16" stroke-linecap="round" stroke-linejoin="round"/>
</svg>
