<svg width="400" height="400" viewBox="0 0 400 400" fill="none" xmlns="http://www.w3.org/2000/svg">
<path d="M124.358 199.901C116.323 200.943 113.41 205.949 113.41 213.893C113.41 219.189 118.718 223.565 129.332 227.02C141.318 309.749 265.334 309.749 272.793 220.355C282.58 214.122 287.474 209.619 287.474 206.847C287.474 201.752 285.693 198.161 276.47 195.05" stroke="black" stroke-opacity="0.9" stroke-width="16" stroke-linecap="round" stroke-linejoin="round"/>
<path d="M146 171.209C156.813 152.732 160.789 134.254 160.789 134.254C160.789 134.254 187.231 161.405 261.046 171.209" stroke="black" stroke-opacity="0.9" stroke-width="16" stroke-linecap="round" stroke-linejoin="round"/>
<path d="M286.793 169.009C282.793 129.676 258.999 83.2539 190.999 83.2539C123 83.2539 85.4601 164.343 100.793 191.009" stroke="black" stroke-opacity="0.9" stroke-width="16" stroke-linecap="round" stroke-linejoin="round"/>
<path d="M155 72.2544C167 51.2544 172 45.382 189.236 46.2544C206.472 47.1267 218.5 78.5 218.5 78.5" stroke="black" stroke-opacity="0.9" stroke-width="16" stroke-linecap="round" stroke-linejoin="round"/>
<path d="M186.238 204.569C186.447 200.44 187.254 196.542 187.65 192.634" stroke="black" stroke-opacity="0.9" stroke-width="16" stroke-linecap="round" stroke-linejoin="round"/>
<path d="M218.511 203.574C218.94 199.288 218.32 194.941 217.984 190.645" stroke="black" stroke-opacity="0.9" stroke-width="16" stroke-linecap="round" stroke-linejoin="round"/>
<path d="M320 354.786C304.879 332.422 275.904 314.075 234 307.004C225.339 305.543 224.619 344.48 199.5 343.544C174.381 342.608 164 307.004 164 307.004C164 307.004 91.9843 331.535 79 344.48" stroke="black" stroke-opacity="0.9" stroke-width="16" stroke-linecap="round" stroke-linejoin="round"/>
</svg>
