<svg width="400" height="400" viewBox="0 0 400 400" fill="none" xmlns="http://www.w3.org/2000/svg">
<path opacity="0.503384" d="M130.595 112.959C148.186 51.523 163.046 101.662 169.285 101.662C172.46 101.662 175.708 56.2869 198.13 71.2959C220.551 86.3048 201.005 109.428 203.05 109.428C204.492 109.428 214.231 85.8881 218.527 83.2979C225.682 78.9893 238.502 81.8588 240.337 91.0687C241.381 96.318 240.337 112.959 241.039 112.959C241.569 112.959 289.605 94.0971 269.178 121.435" stroke="black" stroke-opacity="0.9" stroke-width="14" stroke-linecap="round" stroke-linejoin="round"/>
<path opacity="0.503384" d="M112.489 129.63C172.088 115.819 234.115 131.104 293.547 131.104" stroke="black" stroke-opacity="0.9" stroke-width="14" stroke-linecap="round" stroke-linejoin="round"/>
<path d="M120.44 177.035C118.027 184.033 121.777 187.533 131.69 187.533C128.807 241.698 154.673 267.557 209.287 265.111C267.961 262.483 268.16 185.059 271.629 183.335C276.805 180.76 277.233 183.365 281.476 177.737" stroke="black" stroke-opacity="0.9" stroke-width="16" stroke-linecap="round" stroke-linejoin="round"/>
<path d="M172.842 138.356C160.248 157.265 140.44 165.99 122.146 174.617" stroke="black" stroke-opacity="0.9" stroke-width="16" stroke-linecap="round" stroke-linejoin="round"/>
<path d="M116.212 261.535C47.4969 184.612 108.808 49.918 214.322 61.728C307.623 72.1723 345.845 199.625 279.491 266.478" stroke="black" stroke-opacity="0.9" stroke-width="16" stroke-linecap="round" stroke-linejoin="round"/>
<path d="M182.181 188.121C182.181 183.618 182.181 179.12 182.181 174.617" stroke="black" stroke-opacity="0.9" stroke-width="16" stroke-linecap="round" stroke-linejoin="round"/>
<path d="M217.138 188.121C216.954 183.52 218.518 179.206 218.518 174.617" stroke="black" stroke-opacity="0.9" stroke-width="16" stroke-linecap="round" stroke-linejoin="round"/>
<path d="M219.916 226.461C193.411 269.34 158.739 202.199 212.755 223.619" stroke="black" stroke-opacity="0.9" stroke-width="16" stroke-linecap="round" stroke-linejoin="round"/>
<path d="M257.335 151.652C259.727 164.869 267.807 170.443 277.855 175.826" stroke="black" stroke-opacity="0.9" stroke-width="16" stroke-linecap="round" stroke-linejoin="round"/>
<path opacity="0.503384" d="M71.9086 339C51.203 288.272 71.3378 304.25 84.4241 299.773C92.9228 296.866 94.3731 268.623 112.922 276.237C116.762 277.812 116.673 284.098 119.873 285.508C124.165 287.395 125.827 288.219 126.825 293.352C128.951 304.25 107.65 316.579 103.887 326.874" stroke="black" stroke-opacity="0.9" stroke-width="14" stroke-linecap="round" stroke-linejoin="round"/>
<path opacity="0.503384" d="M298.309 279.834C321.283 266.834 313.524 282.429 322.026 295.216C326.634 302.15 343.129 308.148 334.58 325.291C326.345 341.8 313.027 327.456 306.68 321.092C304.805 319.216 304.368 326.741 301.797 327.388C287.35 331.008 288.165 316.119 289.242 306.408" stroke="black" stroke-opacity="0.9" stroke-width="14" stroke-linecap="round" stroke-linejoin="round"/>
<path d="M130.595 284.609C141.843 279.735 153.785 273.496 163.185 265.27" stroke="black" stroke-opacity="0.9" stroke-width="16" stroke-linecap="round" stroke-linejoin="round"/>
<path d="M240.437 260.435C254.053 269.522 268.94 275.776 283.89 282.191" stroke="black" stroke-opacity="0.9" stroke-width="16" stroke-linecap="round" stroke-linejoin="round"/>
<path opacity="0.503384" d="M131.802 302.331C141.828 301.677 151.15 305.423 159.857 310.277C167.166 314.353 187.226 335.444 196.33 334.104C227.078 329.58 251.593 290.631 287.511 304.501" stroke="black" stroke-opacity="0.9" stroke-width="14" stroke-linecap="round" stroke-linejoin="round"/>
</svg>
