<svg width="400" height="400" viewBox="0 0 400 400" fill="none" xmlns="http://www.w3.org/2000/svg">
<path d="M102.01 169C77 155.849 49 151 47 134C57 119.866 94.3156 132.025 130.549 139.553C183.683 150.591 268.078 148.394 277.379 139.553C281.769 140.261 343 119 356 139.553C348.314 150.101 312.187 163.385 308.966 163.849" stroke="black" stroke-opacity="0.9" stroke-width="16" stroke-linecap="round" stroke-linejoin="round"/>
<path d="M125 140C126.155 113.518 144.177 46.9893 175.914 53.2305C185.823 55.1782 193.484 59.3547 203.572 59.3547C213.609 59.3547 220.468 54.4023 230.601 51.7479C263.372 43.1538 276.395 110.956 279 135.55" stroke="black" stroke-opacity="0.9" stroke-width="16" stroke-linecap="round" stroke-linejoin="round"/>
<path d="M187.789 195.843C187.789 188.829 187.452 192.001 188.471 186.302" stroke="black" stroke-opacity="0.9" stroke-width="16" stroke-linecap="round" stroke-linejoin="round"/>
<path d="M221.533 195.843C221.533 192.663 221.533 189.482 221.533 186.302" stroke="black" stroke-opacity="0.9" stroke-width="16" stroke-linecap="round" stroke-linejoin="round"/>
<path d="M127.349 177.004C119.363 178.191 116.468 183.901 116.468 192.961C116.468 199 121.743 203.991 132.294 207.932C144.207 302.28 267.472 302.28 274.886 200.331C284.614 193.222 289.478 188.087 289.478 184.925C289.478 179.115 287.708 175.019 278.541 171.472" stroke="black" stroke-opacity="0.9" stroke-width="16" stroke-linecap="round" stroke-linejoin="round"/>
<path d="M72.9996 348C72.9992 331 72.1953 297.942 81.9726 288.154C88.6847 281.442 101.506 280.996 112.232 278.641C124.775 275.886 141.16 274.046 159.159 272.927" stroke="black" stroke-opacity="0.9" stroke-width="16" stroke-linecap="round" stroke-linejoin="round"/>
<path d="M232.344 271.73C274.278 272.616 309.96 276.013 312.526 279.506C319.854 289.479 320.999 298.112 320.999 337.285" stroke="black" stroke-opacity="0.9" stroke-width="16" stroke-linecap="round" stroke-linejoin="round"/>
<path d="M195.755 299C195.755 308 195.755 333 195.755 344" stroke="black" stroke-opacity="0.9" stroke-width="16" stroke-linecap="round" stroke-linejoin="round"/>
<path d="M271 329C264.8 329 247.578 329 240 329" stroke="black" stroke-opacity="0.9" stroke-width="16" stroke-linecap="round" stroke-linejoin="round"/>
</svg>
