<svg width="400" height="400" viewBox="0 0 400 400" fill="none" xmlns="http://www.w3.org/2000/svg">
<path d="M322.001 368.204C304.903 368.831 287.616 368.824 270.68 369.296" stroke="black" stroke-opacity="0.9" stroke-width="16" stroke-linecap="round" stroke-linejoin="round"/>
<path d="M181.14 70.1063C200.575 50.5697 239.064 63.1238 256.15 84.9016C292.925 131.776 272.316 231.712 184.415 219.155C125.409 213.621 116.716 97.9502 166.944 84.9016" stroke="black" stroke-opacity="0.9" stroke-width="16" stroke-linecap="round" stroke-linejoin="round"/>
<path d="M268.496 245.338C270.548 214.115 285.208 212.676 293.478 217.287C310.49 226.772 313.003 287.246 298.836 290.723C271.239 297.497 267.046 259.457 270.475 241.977" stroke="black" stroke-opacity="0.9" stroke-width="16" stroke-linecap="round" stroke-linejoin="round"/>
<path d="M290.982 297.189C290.981 316.883 292.281 333.262 292.281 355.942" stroke="black" stroke-opacity="0.9" stroke-width="16" stroke-linecap="round" stroke-linejoin="round"/>
<path d="M232.342 348.549C232.892 319.001 231.622 266.383 227.002 241.54" stroke="black" stroke-opacity="0.9" stroke-width="16" stroke-linecap="round" stroke-linejoin="round"/>
<path d="M149.473 241.54C123.267 272.114 115.231 315.883 109.53 361.541" stroke="black" stroke-opacity="0.9" stroke-width="16" stroke-linecap="round" stroke-linejoin="round"/>
<path d="M211.257 163.744C248.174 156.489 237.181 204.817 211.257 198.414C192.867 193.872 192.867 163.744 207.809 163.744" stroke="black" stroke-opacity="0.9" stroke-width="16" stroke-linecap="round" stroke-linejoin="round"/>
<path d="M233.117 138.184C233.117 136 232.751 133.664 233.07 131.382" stroke="black" stroke-opacity="0.9" stroke-width="16" stroke-linecap="round" stroke-linejoin="round"/>
<path d="M206.332 138.184C206.332 135.918 206.332 133.648 206.332 131.382" stroke="black" stroke-opacity="0.9" stroke-width="16" stroke-linecap="round" stroke-linejoin="round"/>
<path d="M120.167 114.157C167.68 105.86 120.217 205.648 109.895 144.402C108.18 134.235 106.226 121.817 112.635 112.695" stroke="black" stroke-opacity="0.9" stroke-width="16" stroke-linecap="round" stroke-linejoin="round"/>
<path d="M271.819 116.655C279.312 111.394 288.475 107.113 291.763 118.718C303.437 173.84 261.944 180.937 271.029 128.006" stroke="black" stroke-opacity="0.9" stroke-width="16" stroke-linecap="round" stroke-linejoin="round"/>
<path d="M121.844 104.532C126.754 6.39303 276.916 4.49008 288.18 100.583" stroke="black" stroke-opacity="0.9" stroke-width="16" stroke-linecap="round" stroke-linejoin="round"/>
<path d="M225.91 241.54C243.381 292.861 267.404 328.894 294.702 352.917" stroke="black" stroke-opacity="0.9" stroke-width="16" stroke-linecap="round" stroke-linejoin="round"/>
</svg>
