<svg width="400" height="400" viewBox="0 0 400 400" fill="none" xmlns="http://www.w3.org/2000/svg">
<g clip-path="url(#clip0_1619_68395)">
<path d="M192 66C181.242 99.1128 160.41 131.963 125 134" stroke="black" stroke-opacity="0.9" stroke-width="16" stroke-linecap="round" stroke-linejoin="round"/>
<path d="M124.56 125.295C64.0393 88.5822 70.625 203.535 111.735 181.061C155.605 157.077 120.34 120.847 105.659 147.601" stroke="black" stroke-opacity="0.9" stroke-width="16" stroke-linecap="round" stroke-linejoin="round"/>
<path d="M192 76C198.752 121.56 254.545 136.535 288 121.165" stroke="black" stroke-opacity="0.9" stroke-width="16" stroke-linecap="round" stroke-linejoin="round"/>
<path d="M299.191 119.511C366.345 99.982 330.9 201.667 293.697 172.804C259.508 146.28 339.15 121.777 310.182 155.485" stroke="black" stroke-opacity="0.9" stroke-width="16" stroke-linecap="round" stroke-linejoin="round"/>
<path d="M116 114C131.55 29.6314 278.475 19.836 284 114" stroke="black" stroke-opacity="0.9" stroke-width="16" stroke-linecap="round" stroke-linejoin="round"/>
<path d="M125 185.443C154.673 273.676 253.884 260.263 282 179" stroke="black" stroke-opacity="0.9" stroke-width="16" stroke-linecap="round" stroke-linejoin="round"/>
<path d="M185 158C185.248 154.511 186.328 151.357 187 148" stroke="black" stroke-opacity="0.9" stroke-width="16" stroke-linecap="round" stroke-linejoin="round"/>
<path d="M219 158C219 154.62 219 151.226 219 148" stroke="black" stroke-opacity="0.9" stroke-width="16" stroke-linecap="round" stroke-linejoin="round"/>
<path d="M215 202C206.936 210.506 202.596 210.341 193 206.372" stroke="black" stroke-opacity="0.9" stroke-width="16" stroke-linecap="round" stroke-linejoin="round"/>
<path d="M349 339.422C328.188 300.298 279.63 270.132 228.011 260.523C217.342 258.537 212.277 328.276 201.565 328.149C191.955 328.034 177.201 257.786 168.735 258.977C102.049 268.362 69.7981 314.531 55.4725 338.792" stroke="black" stroke-opacity="0.9" stroke-width="16" stroke-linecap="round" stroke-linejoin="round"/>
</g>
<defs>
<clipPath id="clip0_1619_68395">
<rect width="400" height="400" fill="white"/>
</clipPath>
</defs>
</svg>
