<svg width="400" height="400" viewBox="0 0 400 400" fill="none" xmlns="http://www.w3.org/2000/svg">
<path d="M165 119C207.236 146.087 271.16 162.02 290 153.859" stroke="black" stroke-opacity="0.9" stroke-width="16" stroke-linecap="round" stroke-linejoin="round"/>
<path d="M103.958 325C110.001 277.9 23.3995 159.149 152 72" stroke="black" stroke-opacity="0.9" stroke-width="16" stroke-linecap="round" stroke-linejoin="round"/>
<path d="M165 69.1889C202.642 55.6141 239.881 65.6473 272.87 86.873C288.049 96.7746 303.062 123.111 307.113 142.377C320.286 205.039 283.417 244.27 295.473 318" stroke="black" stroke-opacity="0.9" stroke-width="16" stroke-linecap="round" stroke-linejoin="round"/>
<path d="M109.872 97C100.027 76.7411 96.9616 51.7708 100.297 46.6633C103.279 42.0968 135.154 62.3626 137 69.1443" stroke="black" stroke-opacity="0.9" stroke-width="16" stroke-linecap="round" stroke-linejoin="round"/>
<path d="M248 70.7156C267.32 49.4465 292.709 38.7427 293.699 41.3988C303.295 67.1409 298.261 96.5031 290.681 102.188" stroke="black" stroke-opacity="0.9" stroke-width="16" stroke-linecap="round" stroke-linejoin="round"/>
<path d="M125.347 189.331C117.454 177.849 97.9186 212.042 124.479 221.156" stroke="black" stroke-opacity="0.9" stroke-width="16" stroke-linecap="round" stroke-linejoin="round"/>
<path d="M126.5 221C136.5 264 173.929 292.5 216 292.5C258.071 292.5 296.5 226.5 289 156.5" stroke="black" stroke-opacity="0.9" stroke-width="16" stroke-linecap="round" stroke-linejoin="round"/>
<path d="M197.227 204C196.44 201.045 197.948 192.4 198 192" stroke="black" stroke-opacity="0.9" stroke-width="16" stroke-linecap="round" stroke-linejoin="round"/>
<path d="M233 203C233.146 199.599 234 196 234 193" stroke="black" stroke-opacity="0.9" stroke-width="16" stroke-linecap="round" stroke-linejoin="round"/>
<path d="M211 248C213.648 249.384 220.671 249.221 223 248.185" stroke="black" stroke-opacity="0.9" stroke-width="16" stroke-linecap="round" stroke-linejoin="round"/>
<path d="M156.636 310.974C113.448 319.436 75.1521 341.307 51 359.415" stroke="black" stroke-opacity="0.9" stroke-width="16" stroke-linecap="round" stroke-linejoin="round"/>
<path d="M247.684 311.557C281.631 318.309 319.376 333.42 348.067 359.415" stroke="black" stroke-opacity="0.9" stroke-width="16" stroke-linecap="round" stroke-linejoin="round"/>
<path d="M156.637 312.071C160.272 326.408 180.696 364.479 193.304 366.978C221.688 372.606 238.538 337.944 245.932 311.557" stroke="black" stroke-opacity="0.9" stroke-width="16" stroke-linecap="round" stroke-linejoin="round"/>
</svg>
