<svg width="400" height="400" viewBox="0 0 400 400" fill="none" xmlns="http://www.w3.org/2000/svg">
<path d="M164.631 79.9052C195.771 42.4141 250.798 42.4141 283.678 90.6173C297.596 111.022 285.151 125.243 285.151 146.513" stroke="black" stroke-opacity="0.9" stroke-width="16" stroke-linecap="round" stroke-linejoin="round"/>
<path d="M157.357 100C150.393 132.667 247.742 159.012 242.299 129.791" stroke="black" stroke-opacity="0.9" stroke-width="16" stroke-linecap="round" stroke-linejoin="round"/>
<path d="M146.682 77.1016C119.26 92.5987 101.983 123.068 113.193 153.262" stroke="black" stroke-opacity="0.9" stroke-width="16" stroke-linecap="round" stroke-linejoin="round"/>
<path d="M123.352 191.875C111.379 250.319 215.434 288.242 260.177 240.646C274.046 225.893 271.701 189.996 274.434 175.435" stroke="black" stroke-opacity="0.9" stroke-width="16" stroke-linecap="round" stroke-linejoin="round"/>
<path d="M181.855 215.307C289.738 183.125 188.378 280.114 178.355 218.386" stroke="black" stroke-opacity="0.9" stroke-width="16" stroke-linecap="round" stroke-linejoin="round"/>
<path d="M218 180C218 176.707 218 173.328 218 170" stroke="black" stroke-opacity="0.9" stroke-width="16" stroke-linecap="round" stroke-linejoin="round"/>
<path d="M191.818 180C192.327 176.63 191.675 173.297 191 170" stroke="black" stroke-opacity="0.9" stroke-width="16" stroke-linecap="round" stroke-linejoin="round"/>
<path d="M113.835 165C102.501 169 107 189 119 189" stroke="black" stroke-opacity="0.9" stroke-width="16" stroke-linecap="round" stroke-linejoin="round"/>
<path d="M287.233 162.298C298.5 170 290.56 183.936 274.434 185.435" stroke="black" stroke-opacity="0.9" stroke-width="16" stroke-linecap="round" stroke-linejoin="round"/>
<path d="M77 348C82.6958 336.597 121.537 282.121 162.345 282.121C170.537 282.121 166.492 313.651 203.106 313.651C224.98 313.651 235.103 279.301 243.983 279.301C270.61 279.301 306.537 313.651 323 348" stroke="black" stroke-opacity="0.9" stroke-width="16" stroke-linecap="round" stroke-linejoin="round"/>
</svg>
