<svg width="400" height="400" viewBox="0 0 400 400" fill="none" xmlns="http://www.w3.org/2000/svg">
<path d="M157.206 239.889C131.805 275.65 192.503 238.022 193.778 250.744" stroke="black" stroke-opacity="0.9" stroke-width="16" stroke-linecap="round" stroke-linejoin="round"/>
<path d="M207.223 248.16C210.56 246.063 214.065 245.807 217.364 248.16C250.079 271.493 252.388 240.936 237.649 243.739" stroke="black" stroke-opacity="0.9" stroke-width="16" stroke-linecap="round" stroke-linejoin="round"/>
<path d="M145.499 272.5C145.085 275.126 147.754 297.831 152.08 297.831C158.009 297.831 169.817 266.909 169.817 277.804C169.817 284.293 166.897 316.409 177.843 319.113C185.112 320.908 191.412 275.828 193.468 279.891C197.364 287.587 193.558 300.28 196.848 309.098C198.216 312.768 206.13 321.8 211.629 318.694C223.275 312.12 211.902 287.179 218.387 278.638C221.813 274.124 220.787 304.601 231.479 302.84C244.25 300.737 245.153 279.464 244.038 273.955" stroke="black" stroke-opacity="0.9" stroke-width="16" stroke-linecap="round" stroke-linejoin="round"/>
<path d="M118.4 175.111C95.3565 176.011 104.035 213.765 122.888 200.338" stroke="black" stroke-opacity="0.9" stroke-width="16" stroke-linecap="round" stroke-linejoin="round"/>
<path d="M279.085 175.193C297.45 173.311 294.525 204.491 276.889 198.878" stroke="black" stroke-opacity="0.9" stroke-width="16" stroke-linecap="round" stroke-linejoin="round"/>
<path d="M136.553 93.2223C130.596 32.8823 247.88 32.8823 256.112 40.427" stroke="black" stroke-opacity="0.9" stroke-width="16" stroke-linecap="round" stroke-linejoin="round"/>
<path d="M163.223 107.889C226.488 23.0922 279.792 84.3873 290.334 98.7656" stroke="black" stroke-opacity="0.9" stroke-width="16" stroke-linecap="round" stroke-linejoin="round"/>
<path d="M208.445 115.633C213.25 110.549 218.532 107.276 229.173 99.6802C272.124 69.0218 286.759 155.694 275.884 188.556" stroke="black" stroke-opacity="0.9" stroke-width="16" stroke-linecap="round" stroke-linejoin="round"/>
<path d="M135.111 94.4709C114.209 80.3331 99.202 130.88 108.683 144.556" stroke="black" stroke-opacity="0.9" stroke-width="16" stroke-linecap="round" stroke-linejoin="round"/>
<path d="M265.889 290C306.81 294.78 343.339 333.881 360 357.222" stroke="black" stroke-opacity="0.9" stroke-width="16" stroke-linecap="round" stroke-linejoin="round"/>
<path d="M124.111 291.222C64.5893 310.052 53.1232 333.369 41 363.333" stroke="black" stroke-opacity="0.9" stroke-width="16" stroke-linecap="round" stroke-linejoin="round"/>
<path d="M152.223 173.889C179.098 173.796 208.731 171.976 235.334 172.955" stroke="black" stroke-opacity="0.9" stroke-width="16" stroke-linecap="round" stroke-linejoin="round"/>
<path d="M215.102 186.111C217.314 182.235 216.451 176.283 215.102 173.889" stroke="black" stroke-opacity="0.9" stroke-width="16" stroke-linecap="round" stroke-linejoin="round"/>
<path d="M170.815 187.333C170.908 182.849 170.62 178.36 170.277 173.889" stroke="black" stroke-opacity="0.9" stroke-width="16" stroke-linecap="round" stroke-linejoin="round"/>
</svg>
