<svg width="400" height="400" viewBox="0 0 400 400" fill="none" xmlns="http://www.w3.org/2000/svg">
<path d="M87.8868 252.962C80.735 241.108 80.1075 227.972 78.5516 214.942C72.8724 167.352 86.9825 186.657 96.6389 155.195C104.064 131.001 102.316 101.122 116.475 79.1526C136.496 48.0889 185.359 39.3901 223.607 50.814C306.091 79.1526 268.846 114.292 297.091 155.195C319.052 186.998 329.846 222.622 306.091 259.481" stroke="black" stroke-opacity="0.9" stroke-width="16" stroke-linecap="round" stroke-linejoin="round"/>
<path d="M220.772 83.4385C207.547 112.832 177.714 127.236 146.245 128.545C140.207 128.797 135.593 128.259 129.926 126.372" stroke="black" stroke-opacity="0.9" stroke-width="16" stroke-linecap="round" stroke-linejoin="round"/>
<path d="M221.246 83.4385C225.867 100.199 238.802 115.401 251.935 122.428" stroke="black" stroke-opacity="0.9" stroke-width="16" stroke-linecap="round" stroke-linejoin="round"/>
<path d="M177.829 177.958C177.783 172.036 177.475 165.957 178.573 160.235" stroke="black" stroke-opacity="0.9" stroke-width="16" stroke-linecap="round" stroke-linejoin="round"/>
<path d="M221.246 175.595C221.246 169.615 222.426 163.695 222.426 156.691" stroke="black" stroke-opacity="0.9" stroke-width="16" stroke-linecap="round" stroke-linejoin="round"/>
<path d="M159.869 159.054C186.038 153.324 215.286 150.312 242.492 156.829" stroke="black" stroke-opacity="0.9" stroke-width="16" stroke-linecap="round" stroke-linejoin="round"/>
<path d="M136 264C88.4051 278.211 64.1013 307.579 56 354" stroke="black" stroke-opacity="0.9" stroke-width="16" stroke-linecap="round" stroke-linejoin="round"/>
<path d="M258 259.188C305.642 255.089 336.598 318.918 344 354" stroke="black" stroke-opacity="0.9" stroke-width="16" stroke-linecap="round" stroke-linejoin="round"/>
<path d="M211 230.885C204.955 231.403 199.027 230 193 230" stroke="black" stroke-opacity="0.9" stroke-width="16" stroke-linecap="round" stroke-linejoin="round"/>
<path d="M233.314 254C247.004 246.913 265.752 230.305 265.752 186.162C273.485 177.987 284.312 161.308 265.752 160M165 254C143 247.663 125.604 208.584 125.604 183.812C119.804 179.179 114.294 170.076 121.254 167.46" stroke="black" stroke-opacity="0.9" stroke-width="16" stroke-linecap="round" stroke-linejoin="round"/>
<path d="M203.5 279.5C220 279.5 239.133 229.553 229.691 216.462C220.248 203.371 139.501 189.5 184.5 277" stroke="black" stroke-opacity="0.9" stroke-width="16" stroke-linecap="round" stroke-linejoin="round"/>
</svg>
