<svg width="400" height="400" viewBox="0 0 400 400" fill="none" xmlns="http://www.w3.org/2000/svg">
<path d="M122.351 170.131C114.576 171.188 111.648 174.454 111.648 182.513C111.648 187.886 118.05 192.095 130.852 195.141C131.221 220.89 143.512 248.815 158.233 259.382M244.014 252.428C257.398 240.188 266.443 222.01 266.443 198.293C275.881 193.09 281.122 189.117 282.165 186.373C284.539 180.131 280.604 173.497 271.679 170.341" stroke="black" stroke-opacity="0.9" stroke-width="16" stroke-linecap="round" stroke-linejoin="round"/>
<path d="M182.234 180.027C182.497 175 183.512 170.255 184.01 165.498" stroke="black" stroke-opacity="0.9" stroke-width="16" stroke-linecap="round" stroke-linejoin="round"/>
<path d="M221.833 179.816C222.372 174.598 221.593 169.306 221.17 164.076" stroke="black" stroke-opacity="0.9" stroke-width="16" stroke-linecap="round" stroke-linejoin="round"/>
<path d="M76 358C80.6631 346.576 75.1957 307.942 84.973 298.154C91.6851 291.442 104.506 290.997 115.232 288.641C127.775 285.886 144.16 284.047 162.16 282.927" stroke="black" stroke-opacity="0.9" stroke-width="16" stroke-linecap="round" stroke-linejoin="round"/>
<path d="M235.345 281.73C277.279 282.616 312.961 286.013 315.527 289.506C322.855 299.479 324 318.112 324 357.285" stroke="black" stroke-opacity="0.9" stroke-width="16" stroke-linecap="round" stroke-linejoin="round"/>
<path d="M197.696 309.113C198.137 324.886 196.346 338.725 197.696 354.376" stroke="black" stroke-opacity="0.9" stroke-width="16" stroke-linecap="round" stroke-linejoin="round"/>
<path d="M213.484 238.103C199.523 240.707 194.122 238.715 192.838 236.933" stroke="black" stroke-opacity="0.9" stroke-width="16" stroke-linecap="round" stroke-linejoin="round"/>
<path d="M226.574 287.097C218.667 295.466 212.661 299.637 201.533 303.034C154.548 317.379 146.758 236.876 182.262 215.2C227.997 187.279 261.881 249.813 229.681 278.489" stroke="black" stroke-opacity="0.9" stroke-width="16" stroke-linecap="round" stroke-linejoin="round"/>
<path opacity="0.5" d="M124.828 133.689C131.215 132.511 138.487 52.8155 140.22 52.8155C142.302 52.8155 143.023 63.4647 143.297 64.3718C146.008 73.4135 152.547 83.7842 161.766 87.476C172.93 91.9441 192.609 60.3551 195.627 52.0476C195.707 51.8282 198.393 41.314 199.476 42.0355C210.176 49.1743 206.175 97.5176 243.341 92.8681C265.646 90.0792 275.119 45.2294 279.512 47.4276C281.093 48.2166 278.028 67.764 277.973 68.9918C276.961 91.2817 280.279 113.129 280.279 135.229C235.953 130.517 190.544 128.257 146.884 135.229" stroke="black" stroke-opacity="0.9" stroke-width="14" stroke-linecap="round" stroke-linejoin="round"/>
</svg>
