<svg width="400" height="400" viewBox="0 0 400 400" fill="none" xmlns="http://www.w3.org/2000/svg">
<path d="M163.142 89.9557C176.467 72.7332 193.422 60.0556 216.662 65.1298C282.155 79.4264 269.557 180.344 204.77 184.889C152.311 188.572 132.684 99.5168 175.034 87.035" stroke="black" stroke-opacity="0.9" stroke-width="16" stroke-linecap="round" stroke-linejoin="round"/>
<path d="M150 210C152.97 237.009 155.808 260.269 158.515 279.781C161.222 299.293 163.384 320.366 165 343" stroke="black" stroke-opacity="0.9" stroke-width="16" stroke-linecap="round" stroke-linejoin="round"/>
<path d="M248.235 216.822C245.811 230.515 239.568 259.88 234.87 286.947C229.675 316.88 226.117 344 226.117 344" stroke="black" stroke-opacity="0.9" stroke-width="16" stroke-linecap="round" stroke-linejoin="round"/>
<path d="M149.83 208.816C142.124 209.354 74.168 225.283 71.3345 225.115C70.6641 225.072 70.0075 225.031 69.3398 224.977C68.0348 224.872 65.858 224.809 64.8454 224.428C62.7127 223.603 60.7925 222.959 59.1122 221.312C58.4125 220.63 60.9308 202.275 68.1742 172.505C74.8686 144.991 85.0504 120.92 87.1044 119.195C89.1322 117.504 103.116 106.233 103.985 106.233C105.467 106.233 106.937 106.544 108.433 106.765C110.662 107.103 116.396 111.668 117.378 112.885C119.425 115.441 117.985 118.799 114.324 124.188C110.662 129.577 102.428 129.577 99.487 132.006" stroke="black" stroke-opacity="0.9" stroke-width="16" stroke-linecap="round" stroke-linejoin="round"/>
<path d="M250.235 211.219C265.262 211.219 336.816 239.868 338.172 241.884C339.593 244.006 341 245.917 341 248.358C341 252.658 337.853 256.598 334.121 259.782C328.918 264.216 323.011 268.174 317.383 272.315C314.063 274.752 310.732 277.2 307.411 279.637C302.181 283.479 258.811 314.848 253.101 318.249C249.094 320.64 244.989 322.987 241.308 325.643C241.233 326.191 241.087 326.742 240.876 327.285C240.397 328.489 234.561 341.928 233.647 343" stroke="black" stroke-opacity="0.9" stroke-width="16" stroke-linecap="round" stroke-linejoin="round"/>
</svg>
