<svg width="400" height="400" viewBox="0 0 400 400" fill="none" xmlns="http://www.w3.org/2000/svg">
<path d="M158.783 198.955C157.097 201.69 145.845 209.598 136.799 220.027C127.746 230.464 120.899 243.421 119.571 245.87C118.576 247.701 117.544 249.503 116.507 251.301C115.504 247.934 114.432 244.597 113.307 241.276C111.287 235.321 109.301 229.35 107.117 223.475C106.205 221.022 105.351 218.52 104.349 216.11C102.979 212.828 101.612 209.542 100.242 206.26C98.8071 202.811 97.1396 199.508 95.543 196.162C94.9044 194.817 94.313 193.415 93.6026 192.119C92.4303 189.974 91.2545 187.83 90.0787 185.684C87.0316 180.116 83.6896 174.813 80.2663 169.575C79.8193 167.668 79.003 165.876 77.8176 164.517C77.7214 164.404 77.6225 164.293 77.5272 164.184C76.9777 163.535 66.9009 164.803 60.4397 162.727C53.3515 160.449 49.8169 154.834 49 154.562" stroke="black" stroke-opacity="0.9" stroke-width="16" stroke-linecap="round" stroke-linejoin="round"/>
<path d="M233.435 195.765C236.108 196.761 238.882 197.708 241.177 199.412C243.56 201.183 245.902 202.947 248.027 205.01C249.792 206.722 251.469 208.513 253.034 210.397C254.803 212.528 256.613 214.656 258.24 216.887L265.028 226.208C267.208 229.2 269.392 232.187 271.571 235.174C273.074 237.234 274.704 239.215 276.31 241.205C276.146 240.999 275.983 240.795 275.818 240.589C277.915 242.98 279.986 245.376 282.208 247.663C284.305 249.819 286.496 251.879 288.726 253.91C290.47 255.502 292.222 257.083 294.007 258.63C298.009 249 302.106 239.414 306.445 229.915C310.482 221.077 314.647 212.3 318.672 203.458C320.515 198.84 322.32 194.227 323.982 189.542C324.853 187.09 325.7 184.631 326.606 182.192C327.058 180.968 327.51 179.745 328.029 178.541C328.902 176.521 329.616 174.39 331.285 172.819C336.318 172.094 340.093 171.245 342.61 170.273C345.128 169.302 348.257 167.485 352 164.822" stroke="black" stroke-opacity="0.9" stroke-width="16" stroke-linecap="round" stroke-linejoin="round"/>
<path d="M159 198.534C158.99 203.392 158.802 208.254 158.342 213.096C158.039 216.281 157.74 219.466 157.382 222.648C156.644 229.208 162.631 289.451 162.631 292.293C162.631 294.561 162.436 296.82 162.164 299.075C162.084 299.604 162.009 300.134 161.935 300.664C161.901 300.906 161.866 301.152 161.897 301.395C161.9 302.381 162.144 303.312 162.633 304.179" stroke="black" stroke-opacity="0.9" stroke-width="16" stroke-linecap="round" stroke-linejoin="round"/>
<path d="M233.435 195.603C234.013 197.539 234.65 199.49 235.054 201.45C235.461 203.427 245.266 289.893 246.069 293.682C246.35 295.989 246.614 298.28 246.609 300.597C246.604 301.907 246.594 303.213 246.561 304.522C246.547 305.351 246.514 306.171 246.571 307" stroke="black" stroke-opacity="0.9" stroke-width="16" stroke-linecap="round" stroke-linejoin="round"/>
<path d="M167.39 113.123C177.684 99.7706 190.783 89.942 208.737 93.8759C259.333 104.96 249.601 183.198 199.55 186.722C159.023 189.577 143.861 120.535 176.578 110.858" stroke="black" stroke-opacity="0.9" stroke-width="16" stroke-linecap="round" stroke-linejoin="round"/>
</svg>
