<svg width="400" height="400" viewBox="0 0 400 400" fill="none" xmlns="http://www.w3.org/2000/svg">
<path d="M107.959 118.707C112.507 109.238 119.972 102.956 130.392 101.245C179.396 93.2005 214.204 155.467 173.452 188.916C136.661 219.112 88.5141 182.545 101.445 140.091" stroke="black" stroke-opacity="0.9" stroke-width="16" stroke-linecap="round" stroke-linejoin="round"/>
<path d="M223.138 126.077C256.976 65.954 347.241 123.665 303.865 178.979C274.655 216.229 207.817 202.447 216.774 149.735" stroke="black" stroke-opacity="0.9" stroke-width="16" stroke-linecap="round" stroke-linejoin="round"/>
<path d="M89.8422 154.097C79.9992 170.208 37.6369 197.245 28.5285 218.499C21.7425 234.332 92.924 220.223 102.399 218.499" stroke="black" stroke-opacity="0.9" stroke-width="16" stroke-linecap="round" stroke-linejoin="round"/>
<path d="M324.597 159.292C395.562 218.499 388.822 230.513 290.988 230.513" stroke="black" stroke-opacity="0.9" stroke-width="16" stroke-linecap="round" stroke-linejoin="round"/>
<path d="M290.988 230.513C291.352 256.859 299.318 320.051 294.391 346.115" stroke="black" stroke-opacity="0.9" stroke-width="16" stroke-linecap="round" stroke-linejoin="round"/>
<path d="M102.402 218.5C108.739 248.16 110.802 315.959 110.802 346.115" stroke="black" stroke-opacity="0.9" stroke-width="16" stroke-linecap="round" stroke-linejoin="round"/>
<path d="M137.364 91.9387C172.521 41.4597 241.039 42.7016 266.303 86.6748" stroke="black" stroke-opacity="0.9" stroke-width="16" stroke-linecap="round" stroke-linejoin="round"/>
<path d="M195.08 148.426C199.92 146.748 211.061 147.13 215.956 147.596" stroke="black" stroke-opacity="0.9" stroke-width="16" stroke-linecap="round" stroke-linejoin="round"/>
<path d="M132.697 205.682C157.035 257.62 239.597 256.499 260.201 211.626" stroke="black" stroke-opacity="0.9" stroke-width="16" stroke-linecap="round" stroke-linejoin="round"/>
<path d="M142.439 155.071C142.866 151.4 142.787 147.686 142.787 143.991" stroke="black" stroke-opacity="0.5" stroke-width="12" stroke-linecap="round" stroke-linejoin="round"/>
<path d="M265.689 160.092C265.689 155.18 265.811 151.693 266.303 147.198" stroke="black" stroke-opacity="0.5" stroke-width="12" stroke-linecap="round" stroke-linejoin="round"/>
<path d="M91.5781 167.377C86.3674 153.643 89.5855 145.207 91.7203 135.239" stroke="black" stroke-opacity="0.9" stroke-width="16" stroke-linecap="round" stroke-linejoin="round"/>
<path d="M327.589 159.301C332.555 150.783 329.747 143.94 324.789 136.501" stroke="black" stroke-opacity="0.9" stroke-width="16" stroke-linecap="round" stroke-linejoin="round"/>
<path d="M324.393 168.901C325.826 168.178 326.526 166.501 327.593 165.301" stroke="black" stroke-opacity="0.9" stroke-width="16" stroke-linecap="round" stroke-linejoin="round"/>
<path d="M94.0039 160.501C95.4013 159.585 96.9383 159.701 98.4035 159.301" stroke="black" stroke-opacity="0.9" stroke-width="16" stroke-linecap="round" stroke-linejoin="round"/>
</svg>
