<svg width="334" height="334" viewBox="0 0 334 334" fill="none" xmlns="http://www.w3.org/2000/svg">
<rect width="334" height="334" fill="black"/>
<path d="M132.583 166.127C131.175 168.411 121.779 175.014 114.226 183.722C106.667 192.437 100.95 203.256 99.8408 205.301C99.0102 206.83 98.1482 208.335 97.2825 209.836C96.4446 207.025 95.5498 204.238 94.6104 201.466C92.9236 196.493 91.2654 191.507 89.442 186.601C88.6801 184.553 87.9672 182.464 87.1307 180.452C85.9868 177.711 84.845 174.968 83.701 172.227C82.503 169.347 81.1107 166.589 79.7775 163.795C79.2442 162.672 78.7504 161.501 78.1572 160.419C77.1784 158.628 76.1966 156.838 75.2148 155.046C72.6704 150.396 69.8799 145.969 67.0215 141.595C66.6482 140.002 65.9666 138.506 64.9768 137.371C64.8964 137.277 64.8139 137.185 64.7343 137.093C64.2755 136.551 55.8613 137.61 50.4662 135.877C44.5475 133.975 41.5962 129.286 40.9141 129.059" stroke="white" stroke-width="16" stroke-linecap="round" stroke-linejoin="round"/>
<path d="M194.918 163.463C197.15 164.295 199.466 165.086 201.383 166.509C203.373 167.988 205.328 169.46 207.103 171.183C208.576 172.612 209.976 174.108 211.284 175.681C212.76 177.461 214.272 179.237 215.63 181.101L221.298 188.884C223.119 191.381 224.942 193.876 226.762 196.37C228.017 198.09 229.378 199.744 230.719 201.406C230.582 201.234 230.445 201.063 230.308 200.891C232.059 202.888 233.789 204.888 235.643 206.798C237.394 208.598 239.224 210.318 241.086 212.014C242.542 213.344 244.005 214.664 245.496 215.956C248.837 207.915 252.258 199.91 255.882 191.979C259.252 184.599 262.73 177.27 266.091 169.887C267.63 166.031 269.137 162.179 270.525 158.267C271.252 156.22 271.96 154.167 272.716 152.13C273.093 151.108 273.471 150.087 273.904 149.082C274.633 147.395 275.229 145.615 276.622 144.303C280.825 143.698 283.978 142.989 286.079 142.178C288.181 141.367 290.795 139.849 293.92 137.626" stroke="white" stroke-width="16" stroke-linecap="round" stroke-linejoin="round"/>
<path d="M132.763 165.776C132.755 169.832 132.598 173.892 132.214 177.935C131.961 180.595 131.711 183.254 131.412 185.911C130.796 191.388 135.795 241.691 135.795 244.065C135.795 245.958 135.632 247.844 135.405 249.727C135.338 250.169 135.276 250.611 135.214 251.055C135.185 251.257 135.156 251.462 135.182 251.665C135.184 252.488 135.388 253.265 135.797 253.989" stroke="white" stroke-width="16" stroke-linecap="round" stroke-linejoin="round"/>
<path d="M194.918 163.328C195.401 164.945 195.933 166.574 196.27 168.211C196.61 169.861 204.797 242.06 205.468 245.225C205.702 247.151 205.922 249.064 205.918 250.999C205.914 252.092 205.906 253.183 205.879 254.276C205.866 254.968 205.839 255.652 205.887 256.345" stroke="white" stroke-width="16" stroke-linecap="round" stroke-linejoin="round"/>
<path d="M139.769 94.4573C148.365 83.3082 159.302 75.1014 174.294 78.3862C216.542 87.6411 208.415 152.97 166.623 155.913C132.783 158.297 120.122 100.647 147.441 92.5666" stroke="white" stroke-width="16" stroke-linecap="round" stroke-linejoin="round"/>
</svg>
