<svg width="300" height="300" viewBox="0 0 300 300" fill="none" xmlns="http://www.w3.org/2000/svg">
<rect width="300" height="300" fill="black"/>
<path d="M122.356 67.4668C132.35 54.5499 145.066 45.0417 162.496 48.8474C211.616 59.5698 202.168 135.258 153.577 138.667C114.233 141.429 99.5133 74.6376 131.276 65.2763" stroke="white" stroke-width="16" stroke-linecap="round" stroke-linejoin="round"/>
<path d="M112.5 157.5C114.727 177.756 116.856 195.202 118.886 209.836C120.917 224.47 122.538 240.275 123.75 257.25" stroke="white" stroke-width="16" stroke-linecap="round" stroke-linejoin="round"/>
<path d="M186.176 162.617C184.358 172.886 179.676 194.91 176.153 215.21C172.256 237.66 169.588 258 169.588 258" stroke="white" stroke-width="16" stroke-linecap="round" stroke-linejoin="round"/>
<path d="M112.372 156.612C106.593 157.016 55.626 168.962 53.5009 168.836C52.9981 168.804 52.5056 168.773 52.0048 168.733C51.0261 168.654 49.3935 168.607 48.6341 168.321C47.0345 167.702 45.5943 167.219 44.3342 165.984C43.8094 165.473 45.6981 151.706 51.1307 129.378C56.1515 108.743 63.7878 90.6899 65.3283 89.396C66.8492 88.1281 77.337 79.6743 77.9888 79.6743C79.1 79.6743 80.2029 79.9076 81.3244 80.0739C82.9963 80.3275 87.2966 83.7507 88.0333 84.6636C89.5687 86.5805 88.489 89.0993 85.7426 93.141C82.9963 97.1828 76.821 97.1828 74.6152 99.0044" stroke="white" stroke-width="16" stroke-linecap="round" stroke-linejoin="round"/>
<path d="M187.676 158.414C198.946 158.414 252.611 179.901 253.628 181.413C254.694 183.005 255.749 184.438 255.749 186.268C255.749 189.493 253.389 192.448 250.59 194.836C246.688 198.162 242.257 201.13 238.036 204.236C235.546 206.064 233.048 207.9 230.558 209.728C226.635 212.61 194.107 236.136 189.825 238.687C186.82 240.48 183.741 242.241 180.98 244.232C180.924 244.643 180.814 245.056 180.656 245.464C180.297 246.367 175.92 256.446 175.234 257.25" stroke="white" stroke-width="16" stroke-linecap="round" stroke-linejoin="round"/>
</svg>
